<svg xmlns="http://www.w3.org/2000/svg" width="32" height="28" viewBox="0 0 32 28">
  <path fill="#5D20D4" fill-rule="evenodd" d="M28.7243378,9.45779158 C29.1426533,18.7170324 22.255304,29.0397218 10.0624329,29.0397218 C6.35473956,29.0397218 2.90535022,27.9487789 0,26.0808815 C3.48367733,26.4934218 6.96049689,25.5216628 9.71955111,23.355828 C6.84848889,23.3031119 4.42317333,21.3985494 3.584256,18.7835002 C4.61518667,18.9806041 5.63011644,18.9233071 6.55132533,18.6711966 C3.394528,18.034049 1.21380089,15.1829403 1.28466311,12.1324283 C2.171584,12.6251881 3.18194133,12.920844 4.25859022,12.9552186 C1.33495289,10.9956495 0.507464889,7.1246466 2.22644444,4.1658152 C5.46324711,8.14912175 10.3024498,10.7687519 15.75884,11.0437847 C14.8010569,6.92754268 17.9167084,2.96027824 22.1570116,2.96027824 C24.0428604,2.96027824 25.7504107,3.76014618 26.9482107,5.03902228 C28.4431742,4.74566577 29.8512747,4.19560895 31.1176516,3.44157684 C30.6261876,4.97943479 29.5861129,6.26748162 28.2305876,7.08339167 C29.5586827,6.92296177 30.8250587,6.57000886 32,6.04516487 C31.1222231,7.36987681 30.0112862,8.52957794 28.7243378,9.45779158 Z" transform="translate(0 -2)"/>
</svg>
