<svg xmlns="http://www.w3.org/2000/svg" width="32" height="32" viewBox="0 0 32 32">
  <path fill="#5D20D4" d="M16,0 C7.16266667,0 0,7.164 0,16 C0,24.836 7.16266667,32 16,32 C24.8373333,32 32,24.836 32,16 C32,7.164 24.8373333,0 16,0 Z M29.18,15.2546667 C25.7466667,14.692 22.5893333,14.6613333 19.7093333,15.1573333 C19.384,14.4066667 19.0466667,13.6573333 18.6866667,12.9173333 C21.7666667,11.584 24.24,9.77333333 26.084,7.47466667 C27.884,9.6 29.0133333,12.3 29.18,15.2546667 Z M24.0573333,5.54533333 C22.4506667,7.61733333 20.2333333,9.256 17.4093333,10.452 C16.0546667,7.97066667 14.5053333,5.55066667 12.7586667,3.20133333 C13.7973333,2.93866667 14.88,2.78266667 16,2.78266667 C19.0333333,2.78266667 21.824,3.82133333 24.0573333,5.54533333 Z M10.036,4.22133333 C11.8106667,6.544 13.384,8.93866667 14.752,11.396 C11.512,12.3493333 7.644,12.8386667 3.17333333,12.8693333 C4.096,9.08933333 6.64133333,5.94533333 10.036,4.22133333 Z M2.78266667,16 L2.8,15.6586667 C7.932,15.652 12.3586667,15.0613333 16.0666667,13.896 C16.3773333,14.5293333 16.6746667,15.1653333 16.96,15.8053333 C12.4533333,17.2146667 8.74,20.1013333 5.844,24.4453333 C3.93466667,22.1533333 2.78266667,19.2093333 2.78266667,16 Z M7.888,26.4133333 C10.5133333,22.296 13.864,19.616 18.0186667,18.3773333 C19.256,21.604 20.164,24.924 20.7426667,28.324 C16.2773333,30.0453333 11.472,29.212 7.888,26.4133333 Z M23.336,26.9866667 C22.752,23.8493333 21.896,20.7826667 20.776,17.7906667 C23.2773333,17.4373333 26.0293333,17.5293333 29.0413333,18.052 C28.4586667,21.7666667 26.3373333,24.9746667 23.336,26.9866667 Z"/>
</svg>
