<svg xmlns="http://www.w3.org/2000/svg" width="36" height="24" viewBox="0 0 36 24">
  <path fill="#5D20D4" d="M32.9996436,9.56666667 L22.499757,9.56666667 L22.499757,6.5 L32.9996436,6.5 L32.9996436,9.56666667 Z M35.5886157,24.9 C34.9256228,26.8887333 32.5451485,29.5 27.9371983,29.5 C23.3262481,29.5 19.5912884,26.8488667 19.5912884,20.7983333 C19.5912884,14.803 23.0787508,11.721 27.7901999,11.721 C32.41315,11.721 35.2361195,14.4534 35.8526128,18.5075333 C35.9696116,19.2834 36.0161111,20.3291333 35.9951113,21.7888667 L23.9547413,21.7888667 C24.1497392,26.7124 29.1791849,26.8672667 30.836667,24.9 L35.5886157,24.9 Z M24.0597402,18.7666667 L31.5071598,18.7666667 C31.3496615,16.3946 29.8031782,15.3642 27.7916999,15.3642 C25.5927236,15.3642 24.3762368,16.5418 24.0597402,18.7666667 Z M9.69889526,29.4816 L0,29.4816 L0,6.5322 L10.4293874,6.5322 C18.6432987,6.6564 18.799297,14.8796667 14.5093433,17.1214 C19.7007873,19.0534 19.8747854,29.4816 9.69889526,29.4816 Z M4.4999514,15.7 L9.87589335,15.7 C13.6378527,15.7 14.2348463,11.1 9.4078984,11.1 L4.4999514,11.1 L4.4999514,15.7 Z M9.58639648,20.3 L4.4999514,20.3 L4.4999514,24.9245333 L9.51139729,24.9245333 C14.0938478,24.9245333 13.8133508,20.3 9.58639648,20.3 Z" transform="translate(0 -6)"/>
</svg>
