<svg xmlns="http://www.w3.org/2000/svg" width="32" height="32" viewBox="0 0 32 32">
  <path fill="#5D20D4" d="M6.64,3.82608696 C6.64,5.69410628 5.16,7.20772947 3.33333333,7.20772947 C1.50666667,7.20772947 0.0266666667,5.69410628 0.0266666667,3.82608696 C0.0266666667,1.95942029 1.50666667,0.444444444 3.33333333,0.444444444 C5.16,0.444444444 6.64,1.95942029 6.64,3.82608696 Z M6.66666667,9.91304348 L0,9.91304348 L0,31.5555556 L6.66666667,31.5555556 L6.66666667,9.91304348 Z M17.3093333,9.91304348 L10.6853333,9.91304348 L10.6853333,31.5555556 L17.3106667,31.5555556 L17.3106667,20.1945894 C17.3106667,13.8776812 25.3493333,13.3609662 25.3493333,20.1945894 L25.3493333,31.5555556 L32,31.5555556 L32,17.8517874 C32,7.19285024 20.104,7.5810628 17.3093333,12.8280193 L17.3093333,9.91304348 Z"/>
</svg>
