<svg xmlns="http://www.w3.org/2000/svg" width="32" height="32" viewBox="0 0 32 32">
  <path fill="#5D20D4" d="M22.4662853,2.976 C20.7794284,2.89828444 20.272,2.88456889 16,2.88456889 C11.728,2.88456889 11.2228569,2.90056889 9.536,2.976 C5.19542844,3.17485333 3.17485689,5.22971556 2.976,9.536 C2.90057156,11.2228533 2.88228533,11.728 2.88228533,16 C2.88228533,20.272 2.90057156,20.7771467 2.976,22.4662844 C3.17485689,26.7611467 5.18628533,28.8274311 9.536,29.0262844 C11.2205716,29.1017156 11.728,29.12 16,29.12 C20.2742853,29.12 20.7794284,29.104 22.4662853,29.0262844 C26.8068569,28.8297156 28.8251431,26.768 29.0262853,22.4662844 C29.1017147,20.7794311 29.1177147,20.272 29.1177147,16 C29.1177147,11.728 29.1017147,11.2228533 29.0262853,9.536 C28.8251431,5.232 26.8022853,3.17485333 22.4662853,2.976 Z M16,24.2171467 C11.4628569,24.2171467 7.78285689,20.5394311 7.78285689,16 C7.78285689,11.4628533 11.4628569,7.78514667 16,7.78514667 C20.5371431,7.78514667 24.2171431,11.4628533 24.2171431,16 C24.2171431,20.5371467 20.5371431,24.2171467 16,24.2171467 Z M21.3325716,16 C21.3325716,13.0537156 18.944,10.6674311 16,10.6674311 C13.056,10.6674311 10.6674284,13.0537156 10.6674284,16 C10.6674284,18.9462844 13.056,21.3325689 16,21.3325689 C18.944,21.3325689 21.3325716,18.9462844 21.3325716,16 Z M24.5417147,9.38056889 C23.4811431,9.38056889 22.6217147,8.52114667 22.6217147,7.46056889 C22.6217147,6.4 23.4811431,5.54056889 24.5417147,5.54056889 C25.6022853,5.54056889 26.4617147,6.4 26.4617147,7.46056889 C26.4617147,8.51885333 25.6022853,9.38056889 24.5417147,9.38056889 Z M31.904,22.5965689 C31.6411431,28.4137156 28.4022853,31.6365689 22.5988569,31.904 C20.8914284,31.9817156 20.3451431,32 16,32 C11.6548569,32 11.1108569,31.9817156 9.40342844,31.904 C3.58857156,31.6365689 0.363428444,28.4091467 0.096,22.5965689 C0.0182853333,20.8914311 0,20.3451467 0,16 C0,11.6548533 0.0182853333,11.1108533 0.096,9.40343111 C0.363428444,3.58856889 3.59085689,0.363431111 9.40342844,0.0982844444 C11.1108569,0.0182844444 11.6548569,0 16,0 C20.3451431,0 20.8914284,0.0182844444 22.5988569,0.0982844444 C28.416,0.365715556 31.6434284,3.6 31.904,9.40343111 C31.9817147,11.1108533 32,11.6548533 32,16 C32,20.3451467 31.9817147,20.8914311 31.904,22.5965689 Z"/>
</svg>
